<svg width="106.131" height="55.059" viewBox="0 0 106.131 55.059" xmlns="http://www.w3.org/2000/svg"><g id="svgGroup" stroke-linecap="round" fill-rule="nonzero" font-size="9pt" stroke="#000000" stroke-width="0.5" fill="#000000" style="stroke:#000000;stroke-width:0.5;fill:#000000"><path d="M 33.756 49.129 L 33.756 38.854 Q 33.756 36.979 33.344 35.779 Q 32.931 34.579 31.919 33.979 Q 30.906 33.379 29.031 33.379 L 27.606 33.379 L 27.606 28.804 L 53.331 28.804 L 53.331 33.379 L 52.656 33.379 Q 51.081 33.379 50.219 33.979 Q 49.356 34.579 49.056 35.854 Q 48.756 37.129 48.756 39.154 L 48.756 50.554 Q 43.956 52.804 39.119 53.929 Q 34.281 55.054 28.956 55.054 A 39.083 39.083 0 0 1 17.157 53.432 A 25.351 25.351 0 0 1 12.794 51.604 Q 6.381 48.154 3.194 41.966 Q 0.006 35.779 0.006 27.454 Q 0.006 19.354 3.306 13.166 Q 6.606 6.979 13.131 3.491 A 31.173 31.173 0 0 1 25.483 0.147 A 47.97 47.97 0 0 1 29.256 0.004 Q 36.006 0.004 40.506 1.204 A 17.922 17.922 0 0 1 46.757 3.988 A 9.532 9.532 0 0 1 47.294 4.429 Q 49.581 6.454 49.581 8.929 Q 49.581 11.704 46.769 13.916 A 11.588 11.588 0 0 1 40.757 15.99 A 26.565 26.565 0 0 1 37.956 16.129 Q 37.956 12.529 36.906 10.166 Q 35.856 7.804 33.906 6.604 Q 31.956 5.404 29.106 5.404 Q 24.306 5.404 21.344 7.991 Q 18.381 10.579 17.069 15.491 Q 15.756 20.404 15.756 27.454 A 48.646 48.646 0 0 0 16.655 37.391 A 29.405 29.405 0 0 0 17.144 39.379 Q 18.531 44.254 21.681 46.804 Q 24.831 49.354 30.006 49.354 Q 30.831 49.354 31.769 49.279 Q 32.706 49.204 33.756 49.129 Z M 82.881 54.304 L 57.756 54.304 L 57.756 49.729 L 58.056 49.729 Q 59.781 49.729 60.906 49.391 Q 62.031 49.054 62.631 47.966 Q 63.231 46.879 63.231 44.704 L 63.231 23.404 Q 63.231 21.379 62.706 20.366 Q 62.181 19.354 61.131 19.016 Q 60.081 18.679 58.431 18.679 L 58.131 18.679 L 58.131 14.104 L 76.581 14.104 L 77.556 18.904 L 77.931 18.904 Q 79.356 16.579 81.831 14.779 A 11.187 11.187 0 0 1 87.77 13.023 A 24.185 24.185 0 0 1 89.256 12.979 A 12.381 12.381 0 0 1 97.381 15.449 A 9.249 9.249 0 0 1 98.331 16.354 A 12.414 12.414 0 0 1 101.106 22.979 A 28.627 28.627 0 0 1 101.406 27.304 L 101.406 44.479 Q 101.406 46.729 101.819 47.854 Q 102.231 48.979 103.206 49.354 Q 104.181 49.729 105.831 49.729 L 106.131 49.729 L 106.131 54.304 L 86.856 54.304 L 86.856 30.529 A 30.791 30.791 0 0 0 86.333 24.26 A 12.839 12.839 0 0 0 86.031 23.104 Q 85.206 20.479 82.806 20.479 Q 80.931 20.479 79.844 22.054 Q 78.756 23.629 78.306 26.179 Q 77.856 28.729 77.856 31.729 L 77.856 44.929 Q 77.856 46.954 78.344 47.966 Q 78.831 48.979 79.881 49.354 Q 80.931 49.729 82.581 49.729 L 82.881 49.729 L 82.881 54.304 Z"/></g></svg>
